<?xml version="1.0" standalone="no"?>
<!DOCTYPE svg PUBLIC "-//W3C//DTD SVG 20010904//EN"
 "http://www.w3.org/TR/2001/REC-SVG-20010904/DTD/svg10.dtd">
<svg version="1.0" xmlns="http://www.w3.org/2000/svg"
 width="700.000000pt" height="700.000000pt" viewBox="0 0 700.000000 700.000000"
 preserveAspectRatio="xMidYMid meet">
<metadata>
Created by potrace 1.14, written by Peter Selinger 2001-2017
</metadata>
<g transform="translate(0.000000,700.000000) scale(0.100000,-0.100000)"
fill="#000000" stroke="none">
<path d="M3459 6633 c-42 -17 -66 -39 -87 -78 -14 -26 -17 -79 -18 -380 -3
-404 -2 -383 -12 -370 -9 14 -531 447 -563 468 -14 9 -45 18 -71 21 -122 12
-212 -113 -164 -227 18 -45 -9 -21 406 -368 146 -121 286 -239 311 -261 26
-22 55 -45 64 -52 16 -11 17 -41 17 -342 0 -181 -1 -339 -1 -351 -1 -22 -2
-21 -51 10 -28 18 -62 39 -75 47 -14 8 -109 69 -212 135 -103 66 -198 126
-212 134 -59 33 -147 14 -197 -41 -37 -40 -40 -58 -49 -289 -4 -101 -9 -202
-10 -224 -2 -22 -3 -75 -4 -117 -1 -43 -5 -78 -10 -78 -6 0 -74 39 -153 87
-79 47 -152 91 -163 97 -130 71 -236 142 -240 160 -4 18 -27 161 -40 246 -2
14 -11 65 -20 113 -8 49 -18 105 -20 125 -3 21 -7 46 -9 57 -2 11 -9 54 -15
95 -7 41 -16 95 -21 120 -5 25 -12 63 -15 85 -19 140 -48 197 -115 225 -42 17
-121 8 -159 -19 -61 -44 -77 -107 -56 -219 7 -37 16 -85 19 -107 8 -47 10 -61
31 -185 9 -52 18 -106 20 -120 2 -14 11 -65 19 -114 9 -49 14 -92 11 -94 -2
-2 -23 7 -47 21 -24 13 -59 34 -78 44 -19 11 -137 79 -263 151 -125 72 -241
133 -256 137 -62 13 -147 -30 -180 -92 -6 -12 -11 -44 -11 -71 0 -81 35 -119
186 -203 208 -117 483 -283 477 -290 -4 -3 -127 -50 -273 -103 -146 -53 -281
-103 -300 -111 -19 -7 -57 -21 -83 -31 -53 -19 -116 -83 -118 -118 0 -12 -2
-31 -3 -44 -4 -36 29 -97 69 -128 56 -43 102 -39 280 24 83 30 159 57 170 62
63 25 120 46 300 110 110 40 223 80 250 90 91 34 86 35 196 -31 57 -33 122
-71 144 -83 22 -13 102 -60 179 -106 l138 -82 -103 -55 c-57 -31 -117 -62
-134 -70 -16 -7 -64 -32 -105 -54 -41 -22 -119 -63 -173 -91 -54 -28 -108 -62
-122 -76 -32 -32 -48 -85 -43 -137 9 -76 -9 -62 491 -380 l139 -88 -65 -37
c-35 -21 -154 -88 -264 -149 l-200 -112 -244 91 c-134 51 -309 116 -389 147
-80 30 -149 56 -155 57 -5 2 -19 7 -30 11 -133 54 -163 60 -215 44 -130 -42
-156 -224 -41 -292 17 -10 97 -43 178 -73 82 -30 157 -59 168 -64 11 -5 56
-23 100 -39 44 -16 117 -43 163 -61 97 -38 108 -23 -98 -139 -80 -45 -152 -86
-160 -91 -8 -5 -71 -41 -140 -81 -136 -77 -166 -107 -173 -175 -12 -107 80
-197 184 -180 36 6 160 73 509 275 63 36 118 68 123 69 9 4 1 -63 -18 -159 -8
-36 -17 -87 -21 -115 -3 -27 -8 -51 -9 -54 -2 -3 -6 -24 -9 -46 -4 -22 -9 -51
-11 -64 -3 -14 -8 -41 -11 -60 -3 -19 -13 -78 -23 -130 -24 -135 -9 -184 70
-238 69 -47 189 -11 223 68 17 37 31 96 41 170 3 25 8 52 10 60 2 8 25 134 50
280 46 268 52 299 59 335 2 11 10 54 17 96 l12 76 140 79 c77 43 169 96 206
117 36 20 87 49 113 62 l48 25 -5 -87 c-2 -49 -7 -151 -10 -228 -3 -77 -8
-186 -10 -243 -7 -136 15 -190 88 -227 65 -33 106 -22 296 76 188 98 404 210
461 241 19 10 38 18 42 18 5 0 8 -144 8 -319 l0 -319 -267 -218 c-146 -121
-271 -224 -277 -229 -6 -6 -55 -46 -109 -89 -127 -102 -153 -133 -161 -189
-17 -109 79 -207 186 -190 56 9 57 9 288 204 25 21 90 74 145 119 55 45 119
97 142 116 23 20 46 36 50 37 4 1 8 -155 9 -348 0 -192 4 -361 9 -375 39 -118
188 -150 271 -58 45 49 46 53 45 430 0 336 1 359 17 346 9 -7 84 -69 166 -138
291 -244 396 -329 418 -336 139 -45 264 85 211 219 -15 37 -48 67 -387 351
-27 22 -84 70 -125 105 -42 34 -85 70 -96 80 -11 9 -59 49 -106 88 l-86 72 0
266 c0 169 3 265 10 265 5 0 111 -65 236 -144 124 -79 236 -149 248 -155 49
-25 128 -9 175 36 48 46 50 54 63 413 4 96 8 200 10 230 2 30 5 94 6 143 1 48
6 87 10 87 4 0 58 -31 121 -70 146 -90 216 -133 236 -145 10 -5 68 -41 129
-78 l112 -69 10 -51 c6 -29 13 -72 16 -97 3 -25 10 -67 15 -95 5 -27 12 -66
15 -85 3 -19 7 -46 10 -60 3 -14 7 -41 10 -60 3 -19 10 -60 15 -90 5 -30 12
-73 15 -95 3 -22 12 -80 21 -130 8 -49 17 -103 20 -120 2 -16 9 -54 15 -83 20
-99 110 -159 208 -137 44 9 97 63 110 110 10 39 9 55 -9 165 -10 57 -17 104
-26 155 -2 17 -9 55 -14 85 -9 53 -17 98 -25 150 -2 14 -11 65 -19 114 -9 49
-14 91 -12 94 4 3 31 -10 91 -47 17 -10 139 -82 273 -160 217 -128 248 -143
290 -144 127 -1 203 120 148 235 -21 43 -72 78 -302 209 -200 114 -332 195
-326 200 6 6 89 37 357 134 319 115 345 126 374 162 48 59 49 155 1 215 -26
33 -82 59 -128 60 -23 0 -210 -63 -511 -173 -355 -129 -478 -169 -490 -162 -9
6 -115 68 -236 138 -121 70 -226 133 -232 139 -10 9 2 19 50 44 271 140 404
213 425 233 67 65 67 175 1 236 -13 11 -163 109 -332 216 l-308 195 68 40 c37
22 156 90 263 151 107 61 202 115 210 121 8 5 38 21 67 36 l51 27 169 -63 c92
-34 182 -68 198 -75 17 -7 46 -18 65 -25 19 -7 44 -16 55 -21 98 -42 459 -169
479 -169 31 0 91 23 110 42 55 56 67 151 26 212 -32 45 -35 47 -233 122 -153
58 -258 98 -435 166 -63 25 -84 7 193 163 116 65 224 126 240 136 17 10 50 28
74 41 69 36 96 79 96 154 0 48 -5 69 -21 90 -32 44 -68 66 -116 71 -48 6 -83
-7 -183 -65 -134 -78 -495 -282 -498 -282 -2 0 9 71 25 158 16 86 31 173 34
192 3 19 17 98 31 175 14 77 28 159 30 183 15 130 -119 223 -237 164 -60 -30
-85 -83 -106 -227 -3 -22 -14 -85 -24 -140 -11 -55 -22 -116 -25 -135 -6 -38
-52 -302 -59 -335 -2 -11 -7 -40 -11 -65 -8 -49 -9 -55 -21 -120 -4 -25 -8
-49 -8 -54 -1 -10 -43 -36 -153 -97 -32 -18 -110 -61 -173 -97 -63 -36 -140
-79 -170 -95 -30 -16 -61 -34 -68 -40 -10 -8 -11 24 -5 169 4 98 7 241 7 316
1 152 -5 168 -74 216 -38 25 -110 30 -150 9 -50 -26 -308 -161 -430 -225 -69
-36 -130 -69 -137 -74 -6 -5 -13 -5 -16 -1 -3 4 -5 167 -5 361 l0 353 227 186
c624 512 574 466 586 534 9 51 -9 110 -47 146 -72 70 -150 68 -242 -4 -34 -26
-66 -52 -72 -58 -6 -5 -30 -26 -54 -45 -24 -19 -48 -39 -54 -45 -16 -15 -171
-144 -241 -200 -33 -27 -69 -57 -79 -67 -11 -10 -21 -16 -23 -15 -1 2 -3 162
-3 356 -1 213 -5 363 -11 379 -31 83 -131 128 -210 95z m-560 -2066 c9 -8 112
-73 229 -147 116 -73 213 -135 213 -139 1 -3 2 -115 3 -249 1 -161 -2 -241 -9
-238 -5 2 -113 63 -238 135 -126 72 -232 131 -237 131 -11 0 -17 20 -15 50 2
21 8 127 20 325 1 22 3 64 4 93 1 55 5 60 30 39z m1255 -93 c-10 -264 -17
-420 -20 -425 -4 -8 -448 -259 -457 -259 -4 0 -7 109 -7 243 l0 242 103 52
c56 29 161 84 232 122 72 38 135 68 140 67 6 -2 9 -20 9 -42z m-1374 -735 c3
-3 31 -21 63 -40 110 -64 147 -87 251 -152 l78 -50 -28 -15 c-16 -8 -119 -65
-229 -127 -110 -62 -217 -122 -237 -133 l-36 -21 -174 114 c-95 62 -178 118
-184 123 -5 5 -21 15 -35 22 -65 34 -63 39 19 82 123 64 270 142 362 191 83
44 86 44 115 28 17 -9 32 -19 35 -22z m1723 -193 c130 -82 237 -151 237 -155
0 -6 -37 -26 -272 -148 l-107 -55 -218 127 c-120 70 -240 141 -266 158 l-49
30 34 17 c33 17 71 37 263 144 88 48 102 53 120 42 11 -7 127 -79 258 -160z
m-1160 -612 c0 -151 -4 -279 -9 -284 -5 -4 -52 -30 -104 -57 -52 -28 -175 -91
-272 -142 l-177 -92 4 58 c2 32 7 132 11 223 6 166 10 259 13 272 1 6 30 23
160 96 68 38 144 81 161 92 8 5 35 20 60 33 25 14 68 38 95 54 28 17 52 29 54
27 2 -2 4 -128 4 -280z m449 205 c67 -40 138 -81 158 -92 134 -74 144 -83 142
-127 -5 -148 -15 -418 -17 -455 -2 -27 -3 -76 -4 -108 l-1 -59 -32 20 c-18 10
-111 69 -207 131 l-174 111 1 308 c1 349 0 342 7 342 2 0 59 -32 127 -71z"/>
</g>
</svg>
